Land_normalized_Precision Landing16_filtered_grf
version=1
nRows=22
nColumns=37
inDegrees=yes
endheader
time		1_ground_force_vx		1_ground_force_vy		1_ground_force_vz		1_ground_force_px		1_ground_force_py		1_ground_force_pz		1_ground_torque_x		1_ground_torque_y		1_ground_torque_z		2_ground_force_vx		2_ground_force_vy		2_ground_force_vz		2_ground_force_px		2_ground_force_py		2_ground_force_pz		2_ground_torque_x		2_ground_torque_y		2_ground_torque_z		3_ground_force_vx		3_ground_force_vy		3_ground_force_vz		3_ground_force_px		3_ground_force_py		3_ground_force_pz		3_ground_torque_x		3_ground_torque_y		3_ground_torque_z		4_ground_force_vx		4_ground_force_vy		4_ground_force_vz		4_ground_force_px		4_ground_force_py		4_ground_force_pz		4_ground_torque_x		4_ground_torque_y		4_ground_torque_z		
1.173667		-36.429070		953.075689		211.210969		0.076837		0.000000		0.341935		-0.496004		12.977178		2.875918		30.410288		754.572649		199.402804		-0.149374		0.000000		0.346508		1.309477		32.494611		8.587153		4.569541		-0.565546		-1.057673		0.353346		1.255161		1.891461		0.012877		0.016936		0.032922		-18.664139		0.919143		-2.490592		-0.289059		1.264828		1.901287		0.015740		-0.000775		0.002101		
1.176975		-41.164467		945.714878		197.932617		0.079343		0.000000		0.345081		-0.521012		11.969905		2.505244		38.490416		754.026679		189.376181		-0.150011		0.000000		0.347969		1.588558		31.120043		7.815909		4.610075		-0.529585		-1.049999		0.353316		1.255173		1.891511		0.013642		0.018168		0.034812		-18.571657		0.929026		-2.465421		-0.289091		1.264839		1.901329		0.015951		-0.000798		0.002118		
1.180283		-45.166765		932.660381		186.384211		0.080469		0.000000		0.345354		-0.516215		10.660078		2.130379		44.271297		753.129674		183.023160		-0.150595		0.000000		0.348798		1.777324		30.235702		7.347816		4.794242		-0.548311		-1.090422		0.353291		1.255183		1.891556		0.014491		0.017868		0.037819		-18.479944		0.931710		-2.485591		-0.289121		1.264847		1.901379		0.014058		-0.000709		0.001891		
1.183591		-48.164356		914.855937		175.917680		0.080448		0.000000		0.343481		-0.498782		9.474279		1.821827		46.892013		750.374338		176.515345		-0.150580		0.000000		0.349182		1.831800		29.312882		6.895482		5.078561		-0.595953		-1.173657		0.353271		1.255187		1.891600		0.003806		-0.000446		-0.000879		-18.411488		0.931839		-2.570595		-0.289149		1.264847		1.901438		0.010467		-0.000530		0.001461		
1.186899		-50.144578		895.209931		166.513286		0.080006		0.000000		0.341092		-0.487839		8.709244		1.619968		47.266019		745.378808		168.684062		-0.150055		0.000000		0.349291		1.787239		28.184532		6.378375		5.389664		-0.641363		-1.265968		0.353254		1.255186		1.891641		0.004215		-0.000501		-0.000990		-18.390084		0.946743		-2.684801		-0.289169		1.264842		1.901498		0.006412		-0.000330		0.000936		
1.190207		-51.284972		876.624226		158.857212		0.079844		0.000000		0.339586		-0.490509		8.384359		1.519369		47.027153		738.634388		160.732495		-0.149464		0.000000		0.349204		1.720522		27.023507		5.880557		5.649655		-0.660513		-1.332003		0.353236		1.255181		1.891680		0.004784		-0.000559		-0.001128		-18.425361		0.986278		-2.766496		-0.289181		1.264834		1.901554		0.003246		-0.000174		0.000488		
1.193515		-51.670361		860.435208		153.810168		0.080189		0.000000		0.339317		-0.500041		8.326887		1.488503		47.216149		730.982478		154.226600		-0.149157		0.000000		0.348957		1.683562		26.064277		5.499182		5.807597		-0.638626		-1.359065		0.353214		1.255174		1.891719		0.005150		-0.000567		-0.001205		-18.499653		1.041138		-2.779458		-0.289188		1.264828		1.901602		0.001629		-0.000092		0.000245		
1.196823		-51.293828		846.285672		151.843063		0.080771		0.000000		0.339726		-0.507190		8.368010		1.501415		47.698555		723.158829		149.509381		-0.149144		0.000000		0.348624		1.672630		25.358804		5.242809		5.854580		-0.566371		-1.358539		0.353186		1.255168		1.891761		0.004826		-0.000467		-0.001120		-18.571946		1.089672		-2.742334		-0.289192		1.264828		1.901640		0.001477		-0.000087		0.000218		
1.200131		-50.346818		832.875858		152.580610		0.081164		0.000000		0.339991		-0.505661		8.365030		1.532452		47.557541		715.600954		145.638852		-0.149159		0.000000		0.348310		1.645422		24.758743		5.038896		5.821079		-0.444639		-1.347707		0.353158		1.255165		1.891803		0.003478		-0.000266		-0.000805		-18.596430		1.112273		-2.714835		-0.289198		1.264835		1.901671		0.002320		-0.000139		0.000339		
1.203439		-49.148637		818.984965		154.986932		0.081106		0.000000		0.339577		-0.491657		8.192687		1.550405		46.078918		708.513144		141.608357		-0.148961		0.000000		0.348081		1.567751		24.105824		4.817962		5.751013		-0.292933		-1.327351		0.353132		1.255161		1.891841		0.001162		-0.000059		-0.000268		-18.547735		1.099550		-2.752663		-0.289209		1.264846		1.901699		0.003617		-0.000215		0.000537		
1.206747		-47.788126		804.104502		157.861608		0.080576		0.000000		0.338388		-0.468299		7.879789		1.546952		43.465922		702.030738		137.343073		-0.148551		0.000000		0.347918		1.448341		23.392405		4.576428		5.683701		-0.153651		-1.281437		0.353117		1.255157		1.891873		-0.001460		0.000039		0.000329		-18.439090		1.050558		-2.869974		-0.289223		1.264857		1.901725		0.004791		-0.000273		0.000746		
1.210056		-46.056309		788.672230		160.424406		0.079754		0.000000		0.336738		-0.445994		7.637235		1.553497		40.738034		696.236760		133.651205		-0.148156		0.000000		0.347738		1.331627		22.758245		4.368727		5.645959		-0.077517		-1.199739		0.353114		1.255150		1.891890		-0.003310		0.000045		0.000704		-18.318594		0.968275		-3.030563		-0.289239		1.264866		1.901748		0.005316		-0.000281		0.000880		
1.213364		-43.824186		773.751298		162.481382		0.078927		0.000000		0.335154		-0.431692		7.621905		1.600543		38.905459		691.088456		131.309082		-0.148001		0.000000		0.347468		1.257796		22.342563		4.245161		5.646766		-0.096871		-1.097404		0.353128		1.255143		1.891889		-0.003631		0.000062		0.000706		-18.243847		0.860343		-3.173297		-0.289253		1.264868		1.901764		0.004917		-0.000232		0.000855		
1.216672		-41.285217		760.401823		164.200522		0.078308		0.000000		0.334027		-0.422345		7.778947		1.679789		38.153428		686.370987		130.194803		-0.148110		0.000000		0.347100		1.230354		22.133773		4.198462		5.672375		-0.204532		-1.010804		0.353152		1.255138		1.891875		-0.002525		0.000091		0.000450		-18.254105		0.746185		-3.244602		-0.289267		1.264866		1.901768		0.003810		-0.000156		0.000677		
1.219980		-38.715317		749.195671		165.776748		0.077884		0.000000		0.333369		-0.414014		8.011771		1.772790		37.739604		681.764324		129.296957		-0.148292		0.000000		0.346697		1.215875		21.964725		4.165621		5.698329		-0.361305		-0.971053		0.353183		1.255136		1.891850		-0.000597		0.000038		0.000101		-18.353504		0.655497		-3.223908		-0.289281		1.264860		1.901758		0.002644		-0.000094		0.000464		
1.223288		-36.228954		740.171580		167.287568		0.077478		0.000000		0.332906		-0.407577		8.327096		1.882034		36.649294		676.919087		127.477825		-0.148298		0.000000		0.346329		1.171754		21.642451		4.075724		5.709297		-0.520247		-0.975785		0.353213		1.255139		1.891821		0.001646		-0.000150		-0.000282		-18.511232		0.614501		-3.126123		-0.289295		1.264851		1.901734		0.002135		-0.000071		0.000361		
1.226596		-33.882895		732.998520		168.693000		0.076957		0.000000		0.332338		-0.403028		8.718924		2.006588		34.475528		671.544880		124.363469		-0.148019		0.000000		0.346009		1.083311		21.101594		3.907813		5.706557		-0.648552		-0.985300		0.353240		1.255145		1.891793		0.003925		-0.000446		-0.000678		-18.674746		0.629019		-2.988055		-0.289307		1.264842		1.901700		0.002537		-0.000086		0.000406		
1.229904		-31.841926		727.275808		169.859985		0.076323		0.000000		0.331509		-0.396745		9.061797		2.116446		31.713203		665.459914		120.546752		-0.147559		0.000000		0.345683		0.974233		20.442883		3.703195		5.700947		-0.732091		-0.955137		0.353261		1.255153		1.891767		0.005936		-0.000763		-0.000994		-18.791375		0.685292		-2.851409		-0.289314		1.264835		1.901662		0.003366		-0.000123		0.000511		
1.233212		-30.246735		722.719669		170.594440		0.075690		0.000000		0.330488		-0.387204		9.251947		2.183879		29.302719		658.604869		117.058702		-0.147126		0.000000		0.345270		0.883003		19.846194		3.527415		5.707716		-0.766150		-0.878519		0.353275		1.255159		1.891743		0.007069		-0.000949		-0.001088		-18.827525		0.759912		-2.753985		-0.289307		1.264832		1.901620		0.003588		-0.000145		0.000525		
1.236520		-29.007870		719.236680		170.746277		0.075191		0.000000		0.329531		-0.377420		9.357964		2.221574		27.825305		651.009438		114.517058		-0.146859		0.000000		0.344730		0.830123		19.421830		3.416434		5.743907		-0.748000		-0.800818		0.353283		1.255164		1.891718		0.006585		-0.000857		-0.000918		-18.781163		0.830971		-2.724741		-0.289288		1.264832		1.901579		0.002353		-0.000104		0.000341		
1.239828		-27.886218		716.801105		170.321112		0.074892		0.000000		0.328881		-0.370397		9.520921		2.262292		27.132097		642.745962		112.705858		-0.146737		0.000000		0.344097		0.807647		19.132741		3.354936		5.821824		-0.680070		-0.785417		0.353286		1.255164		1.891688		0.004253		-0.000497		-0.000574		-18.678648		0.880058		-2.771177		-0.289258		1.264836		1.901534		-0.000269		0.000013		-0.000040		
1.243136		-26.720693		715.250792		169.515614		0.074726		0.000000		0.328546		-0.364828		9.765655		2.314475		26.625951		633.932006		110.834317		-0.146630		0.000000		0.343464		0.791296		18.839806		3.293882		5.935406		-0.579260		-0.857463		0.353288		1.255161		1.891648		0.000957		-0.000093		-0.000138		-18.561743		0.890798		-2.859582		-0.289222		1.264839		1.901488		-0.003117		0.000150		-0.000480		
